<?xml version="1.0" standalone="no"?>
<!DOCTYPE svg PUBLIC "-//W3C//DTD SVG 20010904//EN"
 "http://www.w3.org/TR/2001/REC-SVG-20010904/DTD/svg10.dtd">
<svg version="1.0" xmlns="http://www.w3.org/2000/svg"
 width="222.000000pt" height="222.000000pt" viewBox="0 0 222.000000 222.000000"
 preserveAspectRatio="xMidYMid meet">
<metadata>
Created by potrace 1.11, written by Peter Selinger 2001-2013
</metadata>
<g transform="translate(0.000000,222.000000) scale(0.100000,-0.100000)"
fill="#000000" stroke="none">
<path d="M930 2169 c-19 -11 -26 -17 -15 -14 47 15 75 17 75 6 0 -6 -7 -11
-14 -11 -8 0 -27 -11 -41 -24 -25 -23 -25 -24 -4 -29 12 -3 18 -10 14 -16 -9
-16 -35 -13 -41 4 -4 8 -15 15 -25 15 -24 0 -25 26 -1 39 31 18 3 12 -44 -10
-48 -23 -184 -147 -184 -169 0 -10 3 -10 15 0 13 11 15 8 15 -14 0 -14 4 -26
9 -26 5 0 7 -9 4 -20 -3 -11 -9 -20 -13 -20 -5 0 -15 -2 -23 -5 -15 -6 -17 21
-3 43 4 7 5 16 2 19 -11 11 -26 -12 -29 -45 -2 -18 -9 -38 -15 -44 -7 -7 -12
-27 -12 -45 0 -21 -6 -36 -15 -39 -8 -3 -19 -25 -25 -48 -6 -22 -15 -49 -20
-58 -9 -16 -6 -18 24 -18 19 0 51 10 71 21 28 17 46 20 83 16 58 -6 188 14
262 41 92 34 98 35 103 15 4 -17 5 -17 6 0 0 9 6 17 12 17 5 0 7 -4 4 -10 -3
-5 -2 -10 2 -10 5 0 13 10 18 22 10 22 14 24 78 52 45 19 55 40 32 65 -9 11
-15 31 -13 48 2 22 9 29 31 31 15 2 27 -1 27 -7 0 -6 14 -18 31 -26 29 -16 31
-15 36 4 3 12 11 21 18 21 8 0 27 12 44 26 25 21 29 30 25 57 -5 25 -3 29 6
17 9 -13 11 -12 8 5 -2 13 -23 29 -61 47 -35 17 -57 34 -57 44 0 12 7 15 25
11 16 -3 24 0 22 7 -2 6 -25 12 -52 14 -43 3 -47 1 -36 -12 11 -13 10 -17 -4
-22 -12 -5 -13 -9 -4 -14 19 -12 22 -70 4 -70 -8 0 -15 -4 -15 -10 0 -5 -6
-10 -14 -10 -10 0 -13 9 -11 28 2 15 4 27 5 27 1 0 3 7 4 15 1 8 -5 23 -15 32
-17 16 -21 15 -68 -20 -28 -20 -51 -41 -51 -45 0 -14 -29 -39 -38 -33 -15 9 0
75 24 101 l23 25 -29 15 c-42 22 -127 19 -170 -6z m150 1 c0 -5 -10 -10 -22
-10 -20 0 -20 -1 -5 -18 23 -25 22 -28 -14 -41 -39 -14 -69 -14 -89 -1 -13 9
-13 11 -1 19 8 5 22 6 30 1 9 -4 27 -3 41 2 15 6 20 12 12 15 -6 3 -9 9 -6 15
4 6 0 14 -7 19 -10 6 -2 9 24 9 20 0 37 -4 37 -10z m140 -50 c0 -5 -5 -10 -11
-10 -5 0 -7 5 -4 10 3 6 8 10 11 10 2 0 4 -4 4 -10z m-37 -25 c-3 -9 -8 -14
-10 -11 -3 3 -2 9 2 15 9 16 15 13 8 -4z m-308 -15 c3 -5 -1 -10 -9 -10 -9 0
-16 -4 -16 -9 0 -14 26 -32 35 -23 5 4 5 2 1 -5 -4 -7 -13 -10 -21 -7 -7 3
-23 -4 -35 -16 -11 -11 -25 -18 -30 -15 -6 4 -10 -1 -10 -9 0 -23 -33 -19 -48
5 -11 18 -11 24 3 39 9 10 27 21 41 24 13 4 23 10 23 14 -1 4 -1 10 0 15 2 11
59 9 66 -3z m345 -6 c0 -10 -31 -36 -37 -31 -10 10 6 37 22 37 8 0 15 -3 15
-6z m136 -10 c-3 -9 -6 -22 -6 -30 0 -8 -5 -14 -11 -14 -6 0 -17 -7 -25 -15
-8 -8 -22 -11 -31 -8 -14 5 -12 8 9 15 18 6 29 19 33 39 4 16 13 29 22 29 10
0 13 -6 9 -16z m-276 -54 c0 -5 -9 -10 -20 -10 -11 0 -20 5 -20 10 0 6 9 10
20 10 11 0 20 -4 20 -10z m160 -10 c0 -5 -4 -10 -9 -10 -6 0 -13 5 -16 10 -3
6 1 10 9 10 9 0 16 -4 16 -10z m-110 -20 c0 -5 -7 -10 -15 -10 -8 0 -15 5 -15
10 0 6 7 10 15 10 8 0 15 -4 15 -10z m90 0 c12 -7 10 -11 -10 -19 -14 -5 -20
-10 -15 -11 6 0 4 -4 -4 -9 -20 -13 -22 -73 -2 -89 14 -12 12 -13 -14 -7 -22
4 -26 3 -15 -5 13 -8 13 -10 -2 -10 -23 0 -32 18 -18 34 7 9 7 15 1 18 -6 1
-14 18 -17 37 -7 34 -7 34 25 28 18 -4 30 -3 26 2 -7 13 5 41 19 41 6 0 18 -5
26 -10z m-94 -112 c4 -7 3 -8 -4 -4 -18 11 -14 -3 9 -35 11 -16 18 -29 15 -29
-2 0 -13 -3 -23 -6 -14 -4 -15 -4 -4 4 7 5 10 15 6 22 -6 9 -10 9 -17 -1 -8
-11 -9 -10 -4 3 4 13 0 17 -15 15 -12 -1 -27 7 -36 20 -14 21 -14 23 8 32 25
9 52 0 65 -21z m-102 -35 c-9 -39 -13 -43 -29 -36 -15 5 -21 44 -8 56 3 4 15
7 25 7 15 0 17 -5 12 -27z m211 18 c3 -5 0 -13 -6 -17 -7 -4 -9 -3 -5 4 3 5 0
13 -6 15 -9 4 -10 6 -1 6 6 1 14 -3 18 -8z m-286 -16 c23 0 24 -23 2 -30 -12
-3 -21 -10 -21 -14 0 -5 -12 -8 -27 -8 -16 0 -47 -3 -70 -7 -46 -7 -54 2 -27
29 9 8 24 13 34 10 10 -3 25 2 35 11 13 13 19 14 25 5 5 -9 9 -8 14 5 4 11 10
14 14 9 4 -6 13 -10 21 -10z m256 -15 c-3 -5 -14 -10 -23 -10 -15 0 -15 2 -2
10 20 13 33 13 25 0z m-515 -55 c0 -8 -4 -15 -10 -15 -5 0 -10 7 -10 15 0 8 5
15 10 15 6 0 10 -7 10 -15z m390 0 c-14 -8 -32 -14 -40 -14 -8 0 -1 7 15 14
39 18 57 18 25 0z"/>
<path d="M1030 1644 c9 -39 20 -56 20 -31 0 8 3 22 6 30 3 9 -2 20 -14 26 -19
10 -19 8 -12 -25z"/>
<path d="M570 1605 c-19 -14 -31 -25 -26 -25 10 0 76 40 76 46 0 9 -17 2 -50
-21z"/>
<path d="M1070 1621 c0 -6 4 -13 10 -16 6 -3 7 1 4 9 -7 18 -14 21 -14 7z"/>
<path d="M508 1573 c7 -3 16 -2 19 1 4 3 -2 6 -13 5 -11 0 -14 -3 -6 -6z"/>
<path d="M1100 1573 c0 -5 7 -18 15 -29 13 -18 14 -18 8 4 -5 22 -23 41 -23
25z"/>
<path d="M430 1505 c0 -14 4 -25 9 -25 4 0 6 11 3 25 -2 14 -6 25 -8 25 -2 0
-4 -11 -4 -25z"/>
<path d="M1070 1490 c0 -5 5 -10 11 -10 5 0 7 5 4 10 -3 6 -8 10 -11 10 -2 0
-4 -4 -4 -10z"/>
<path d="M1100 1486 c0 -1 9 -9 20 -19 15 -13 20 -14 20 -3 0 7 -9 16 -20 19
-11 3 -20 4 -20 3z"/>
<path d="M430 1459 c0 -5 5 -7 10 -4 6 3 10 8 10 11 0 2 -4 4 -10 4 -5 0 -10
-5 -10 -11z"/>
<path d="M1080 1460 c0 -5 5 -10 10 -10 6 0 10 -6 10 -14 0 -8 7 -17 16 -20
13 -5 14 -4 6 7 -7 8 -9 16 -6 20 3 3 -4 10 -15 17 -14 7 -21 7 -21 0z"/>
<path d="M490 1429 c0 -5 5 -7 10 -4 6 3 10 8 10 11 0 2 -4 4 -10 4 -5 0 -10
-5 -10 -11z"/>
<path d="M546 1402 c-8 -24 -3 -37 12 -31 4 2 5 15 2 29 l-6 25 -8 -23z"/>
<path d="M1150 1405 c0 -8 4 -15 10 -15 5 0 7 7 4 15 -4 8 -8 15 -10 15 -2 0
-4 -7 -4 -15z"/>
<path d="M632 1395 c1 -10 9 -20 16 -21 7 -1 8 0 2 3 -5 2 -8 9 -5 13 3 5 0
12 -6 15 -7 5 -10 1 -7 -10z"/>
<path d="M724 1358 l-29 -33 35 30 c19 17 37 31 39 33 2 1 0 2 -5 2 -6 0 -23
-15 -40 -32z"/>
<path d="M1170 1375 c0 -4 9 -18 20 -32 11 -14 20 -22 20 -18 0 4 -9 18 -20
32 -11 14 -20 22 -20 18z"/>
<path d="M480 1325 c-3 -25 -10 -39 -17 -37 -8 1 -13 -8 -12 -20 0 -13 3 -17
6 -10 2 6 9 10 14 6 14 -8 21 19 17 62 l-4 39 -4 -40z"/>
<path d="M645 1350 c-3 -5 -1 -10 4 -10 6 0 11 5 11 10 0 6 -2 10 -4 10 -3 0
-8 -4 -11 -10z"/>
<path d="M550 1335 c7 -8 17 -15 22 -15 6 0 5 7 -2 15 -7 8 -17 15 -22 15 -6
0 -5 -7 2 -15z"/>
<path d="M1068 1343 c7 -3 16 -2 19 1 4 3 -2 6 -13 5 -11 0 -14 -3 -6 -6z"/>
<path d="M1160 1338 c1 -17 29 -88 29 -75 1 9 5 17 10 17 13 0 41 -41 35 -52
-3 -4 1 -5 9 -2 19 7 33 -14 19 -28 -7 -7 -22 -2 -49 17 -28 20 -23 14 19 -26
58 -56 78 -87 96 -151 11 -42 7 -46 -26 -22 -27 19 -29 5 -2 -29 24 -31 25
-34 3 -40 -14 -3 -12 -6 10 -15 33 -14 33 -20 3 -81 -52 -103 -148 -161 -297
-180 l-64 -8 53 -2 c28 0 52 -5 52 -11 0 -5 -6 -10 -13 -10 -8 0 -14 -6 -14
-14 0 -12 4 -12 24 1 13 8 23 20 23 27 0 10 82 37 122 39 9 1 14 6 11 11 -4 5
0 7 9 4 8 -4 21 -2 29 4 11 8 10 9 -3 4 -10 -3 -18 -2 -18 3 0 5 11 11 25 13
14 3 22 1 18 -5 -3 -5 11 2 32 16 20 14 43 23 50 21 17 -7 26 -42 11 -48 -6
-2 6 -2 26 1 57 8 108 -4 108 -26 0 -21 19 -31 55 -31 13 0 26 -5 28 -10 3 -6
4 -5 3 2 -1 7 -18 15 -37 18 -41 6 -48 29 -20 68 l20 29 -28 -1 c-16 -1 -27
-4 -25 -7 2 -4 -5 -9 -17 -12 -33 -9 -37 23 -5 48 26 21 26 35 -1 35 -8 0 -11
-5 -7 -12 5 -8 0 -9 -15 -5 -18 4 -20 3 -11 -8 19 -23 -36 -44 -68 -25 -15 8
-15 9 2 10 15 0 16 3 6 15 -12 14 -7 19 13 16 5 -1 6 3 2 9 -3 5 -13 10 -21
10 -8 0 -12 5 -9 10 8 13 47 9 57 -5 5 -7 13 -7 23 0 20 12 21 28 1 31 -18 2
-58 42 -48 47 4 3 15 3 25 2 9 -2 17 1 17 6 0 5 6 9 14 9 9 0 12 7 9 20 -3 11
-1 21 3 21 52 7 69 7 90 -2 19 -7 24 -14 19 -29 -3 -11 -2 -20 4 -20 5 0 18
-3 28 -6 15 -6 16 -4 6 7 -17 17 -16 29 1 29 15 0 28 -48 15 -56 -5 -3 -19 0
-31 7 -22 11 -22 10 -7 -6 21 -22 59 -12 59 16 0 25 26 25 64 0 17 -11 34 -17
39 -14 6 3 7 1 3 -5 -3 -6 -2 -13 4 -17 5 -3 10 -22 10 -41 0 -19 5 -34 11
-34 5 0 7 5 4 10 -3 6 0 10 7 10 10 0 10 2 -1 9 -10 6 -10 10 -1 16 15 9 60
-14 60 -31 0 -6 15 -21 33 -31 25 -15 38 -17 55 -10 29 13 28 20 -7 34 -23 8
-32 20 -40 51 -17 60 -88 160 -135 189 -22 14 -54 35 -69 45 -23 16 -34 18
-55 10 -15 -6 -44 -13 -64 -17 -20 -3 -38 -11 -40 -17 -3 -8 -10 -8 -25 1 -30
16 -51 5 -46 -24 5 -24 -26 -52 -42 -37 -4 4 -4 -8 0 -25 8 -39 1 -53 -24 -46
-19 5 -19 6 -1 45 18 40 17 68 -1 68 -5 0 -14 -10 -19 -22 -8 -22 -9 -22 -9 4
-1 15 -9 31 -19 37 -25 14 -60 82 -56 110 3 14 -3 32 -13 43 -16 18 -16 19 3
12 16 -6 15 -2 -6 18 -17 17 -28 21 -32 14 -6 -8 -10 -8 -15 0 -5 6 -16 13
-25 17 -10 3 -18 16 -18 27 0 11 -4 20 -10 20 -5 0 -10 -1 -10 -2z m534 -264
c9 -3 16 -15 16 -26 0 -15 5 -18 20 -13 15 5 32 -6 70 -46 29 -30 50 -61 49
-73 0 -15 -6 -9 -22 22 -11 23 -25 42 -29 42 -5 0 -1 -11 7 -24 21 -32 36 -86
24 -86 -5 0 -9 6 -9 14 0 9 -7 12 -22 9 -18 -4 -20 -2 -9 5 12 9 12 14 -2 35
-24 36 -137 70 -137 41 0 -12 -4 -12 -20 -2 -14 9 -16 15 -7 21 7 4 -18 7 -56
5 -50 -2 -66 0 -63 9 3 7 1 15 -4 18 -6 4 -10 0 -10 -8 0 -7 -7 -14 -15 -14
-20 0 -14 17 9 31 14 8 20 8 23 -1 6 -16 67 -17 94 -2 11 5 37 11 58 12 27 1
37 5 34 14 -3 7 -9 11 -13 8 -5 -3 -11 -1 -15 5 -7 11 5 13 29 4z m-140 -30
c3 -8 2 -12 -4 -9 -6 3 -10 10 -10 16 0 14 7 11 14 -7z m199 -96 c29 -11 36
-25 12 -25 -8 0 -11 5 -8 10 4 6 -3 8 -15 5 -12 -4 -20 -2 -16 3 3 5 -6 9 -20
9 -14 0 -28 5 -31 10 -7 12 30 6 78 -12z m121 -104 c3 -8 2 -12 -4 -9 -6 3
-10 10 -10 16 0 14 7 11 14 -7z m-444 -110 c0 -2 -7 -4 -15 -4 -8 0 -15 4 -15
10 0 5 7 7 15 4 8 -4 15 -8 15 -10z m80 2 c0 -3 -4 -8 -10 -11 -5 -3 -10 -1
-10 4 0 6 5 11 10 11 6 0 10 -2 10 -4z"/>
<path d="M1752 1006 c7 -8 15 -12 17 -11 5 6 -10 25 -20 25 -5 0 -4 -6 3 -14z"/>
<path d="M1022 1290 c-30 -39 -28 -47 3 -14 22 23 32 44 22 44 -2 0 -13 -13
-25 -30z"/>
<path d="M665 1273 c-9 -21 -21 -41 -28 -45 -9 -6 -8 -8 3 -8 9 0 22 18 32 45
20 54 15 60 -7 8z"/>
<path d="M531 1284 c0 -11 3 -14 6 -6 3 7 2 16 -1 19 -3 4 -6 -2 -5 -13z"/>
<path d="M1046 1264 c-5 -12 -2 -15 10 -10 8 3 23 6 32 7 14 0 13 2 -3 9 -29
12 -32 12 -39 -6z"/>
<path d="M607 1220 c3 -11 7 -20 9 -20 2 0 4 9 4 20 0 11 -4 20 -9 20 -5 0 -7
-9 -4 -20z"/>
<path d="M1340 1205 c7 -8 17 -15 22 -15 6 0 5 7 -2 15 -7 8 -17 15 -22 15 -6
0 -5 -7 2 -15z"/>
<path d="M1406 1194 c-5 -14 -4 -15 9 -4 17 14 19 20 6 20 -5 0 -12 -7 -15
-16z"/>
<path d="M1300 1159 c0 -6 8 -21 18 -34 18 -22 19 -22 30 -4 7 10 20 19 29 19
12 0 14 3 6 11 -8 8 -17 8 -31 0 -25 -13 -35 -14 -28 -2 3 5 -1 11 -9 15 -8 3
-15 1 -15 -5z"/>
<path d="M503 1149 c-7 -7 -9 -24 -6 -39 5 -26 2 -28 -36 -35 -23 -4 -47 -14
-54 -22 -7 -8 -19 -22 -27 -31 -35 -39 -60 -81 -60 -100 0 -24 -22 -42 -28
-24 -2 7 -8 12 -13 12 -16 0 -9 -54 11 -80 21 -27 26 -60 9 -60 -6 0 -9 6 -6
14 6 15 -11 36 -27 36 -6 0 -6 -4 1 -8 7 -4 10 -17 6 -30 -4 -18 -8 -20 -19
-11 -15 12 -33 5 -20 -8 8 -8 85 -11 84 -4 -4 42 3 48 64 59 34 6 69 18 77 27
19 19 3 19 -42 0 -20 -8 -52 -15 -70 -15 -19 0 -40 7 -47 15 -15 18 -12 18 28
4 26 -9 34 -7 51 10 20 20 20 21 2 21 -11 0 -23 -4 -26 -10 -3 -5 -13 -10 -21
-10 -11 0 -13 6 -9 21 4 12 8 32 10 44 1 13 16 35 32 49 17 14 34 37 37 50 4
17 16 26 48 34 23 6 44 9 47 6 2 -2 -1 -4 -7 -4 -7 0 -12 -6 -12 -14 0 -8 -7
-16 -15 -20 -8 -3 -15 -15 -15 -26 0 -14 -7 -20 -22 -20 -18 0 -20 -2 -8 -10
16 -10 54 16 44 31 -3 5 -1 9 5 9 14 0 53 77 49 98 -1 9 1 23 5 30 11 17 47
15 47 -3 0 -25 -29 -88 -52 -112 -24 -26 -13 -30 16 -8 23 17 40 20 31 5 -3
-5 -1 -10 4 -10 6 0 11 -11 11 -25 0 -14 4 -25 10 -25 5 0 7 13 4 29 -5 25 -3
30 17 34 22 4 22 4 -3 6 -33 1 -47 40 -28 76 19 35 6 55 -33 55 -18 0 -38 -5
-44 -11z"/>
<path d="M640 1148 c0 -9 -9 -18 -20 -21 -11 -3 -20 -10 -20 -17 0 -7 8 -9 20
-5 15 5 20 2 20 -13 0 -15 -6 -20 -24 -18 -16 2 -23 -1 -19 -10 2 -6 16 -11
30 -9 17 2 27 -4 33 -19 6 -13 7 3 3 44 -3 36 -9 69 -14 75 -6 5 -9 3 -9 -7z"/>
<path d="M1482 1153 c-18 -2 -30 -9 -27 -14 9 -14 51 -11 65 6 7 8 9 14 4 13
-5 0 -24 -3 -42 -5z"/>
<path d="M352 1120 c0 -14 2 -19 5 -12 2 6 2 18 0 25 -3 6 -5 1 -5 -13z"/>
<path d="M380 1130 c0 -5 5 -10 10 -10 6 0 10 5 10 10 0 6 -4 10 -10 10 -5 0
-10 -4 -10 -10z"/>
<path d="M205 1105 c7 -33 12 -41 20 -33 3 3 -2 18 -11 34 l-16 29 7 -30z"/>
<path d="M357 1083 c-4 -3 -7 -11 -7 -17 0 -6 5 -5 12 2 6 6 9 14 7 17 -3 3
-9 2 -12 -2z"/>
<path d="M283 1070 c3 -8 -4 -30 -15 -47 -11 -18 -16 -33 -11 -33 4 0 16 14
26 31 13 23 14 35 6 47 -7 12 -9 13 -6 2z"/>
<path d="M355 1040 c-3 -5 -1 -10 4 -10 6 0 11 5 11 10 0 6 -2 10 -4 10 -3 0
-8 -4 -11 -10z"/>
<path d="M418 1013 c7 -3 16 -2 19 1 4 3 -2 6 -13 5 -11 0 -14 -3 -6 -6z"/>
<path d="M580 935 c-7 -8 -18 -15 -25 -15 -8 0 -15 -5 -17 -11 -3 -8 -15 -6
-38 6 -26 14 -38 15 -52 6 -10 -6 -24 -11 -32 -11 -8 0 -18 -5 -22 -12 -5 -7
-3 -8 5 -4 8 5 14 0 18 -13 3 -12 10 -21 15 -21 5 0 7 9 3 19 -4 14 0 23 16
31 18 10 26 8 49 -9 24 -18 30 -18 40 -6 7 8 18 15 26 15 7 0 18 9 24 20 13
24 8 26 -10 5z"/>
<path d="M1104 919 c5 -27 4 -30 -9 -19 -23 19 -31 3 -16 -33 7 -18 13 -42 12
-53 -1 -27 38 -40 58 -19 17 17 28 125 13 125 -6 0 -12 -6 -15 -12 -3 -8 -9
-1 -16 15 -15 38 -35 35 -27 -4z"/>
<path d="M1634 878 c-4 -6 -21 -7 -38 -4 -29 5 -30 5 -8 -7 12 -7 19 -17 15
-21 -4 -5 2 -4 14 3 12 6 24 15 28 20 3 6 14 8 25 6 11 -2 20 0 20 4 0 12 -49
11 -56 -1z"/>
<path d="M1935 871 c17 -10 32 -17 34 -15 7 7 -33 33 -49 34 -8 0 -1 -8 15
-19z"/>
<path d="M1733 855 c0 -8 4 -15 9 -15 4 0 8 7 8 15 0 8 -4 15 -8 15 -5 0 -9
-7 -9 -15z"/>
<path d="M1820 830 c0 -5 5 -10 11 -10 5 0 7 5 4 10 -3 6 -8 10 -11 10 -2 0
-4 -4 -4 -10z"/>
<path d="M180 800 c0 -5 5 -10 10 -10 6 0 10 5 10 10 0 6 -4 10 -10 10 -5 0
-10 -4 -10 -10z"/>
<path d="M1805 800 c3 -5 8 -10 11 -10 2 0 4 5 4 10 0 6 -5 10 -11 10 -5 0 -7
-4 -4 -10z"/>
<path d="M1740 790 c0 -13 11 -13 30 0 12 8 11 10 -7 10 -13 0 -23 -4 -23 -10z"/>
<path d="M851 764 c0 -11 3 -14 6 -6 3 7 2 16 -1 19 -3 4 -6 -2 -5 -13z"/>
<path d="M1867 774 c-8 -8 1 -24 12 -24 4 0 8 7 8 15 0 16 -9 20 -20 9z"/>
<path d="M1978 763 c7 -3 16 -2 19 1 4 3 -2 6 -13 5 -11 0 -14 -3 -6 -6z"/>
<path d="M1698 743 c7 -3 16 -2 19 1 4 3 -2 6 -13 5 -11 0 -14 -3 -6 -6z"/>
<path d="M1950 728 c0 -12 1 -19 3 -17 1 2 9 12 16 22 12 14 11 17 -3 17 -10
0 -16 -8 -16 -22z"/>
<path d="M861 724 c0 -11 3 -14 6 -6 3 7 2 16 -1 19 -3 4 -6 -2 -5 -13z"/>
<path d="M1606 689 c-11 -11 -15 -19 -10 -19 16 0 37 17 33 27 -2 6 -13 2 -23
-8z"/>
<path d="M311 688 c0 -9 -4 -25 -7 -35 -5 -14 -4 -15 5 -7 7 7 11 22 8 35 -2
13 -5 16 -6 7z"/>
<path d="M875 591 c0 -104 -1 -110 -37 -182 -34 -69 -28 -69 22 1 l15 20 30
-20 30 -20 -27 0 c-16 0 -28 -4 -28 -8 0 -5 14 -9 30 -9 17 0 30 4 30 9 0 4
18 -3 40 -17 22 -14 48 -25 57 -25 10 -1 29 -7 43 -15 29 -16 44 -19 36 -6 -9
15 22 33 44 26 11 -3 18 -10 15 -14 -2 -4 25 3 60 17 35 14 62 29 60 33 -3 4
-15 5 -27 1 -14 -3 -19 -2 -14 6 11 17 -1 15 -89 -18 -79 -29 -113 -38 -87
-21 18 11 -89 63 -114 55 -14 -4 -16 -3 -5 4 16 12 -3 27 -21 16 -7 -4 -10 -4
-6 1 5 5 -6 16 -22 26 -43 27 -34 72 17 82 16 2 42 9 58 15 17 6 58 19 93 28
71 20 94 37 31 23 -33 -8 -53 -5 -103 12 -85 30 -116 47 -124 69 -4 10 -7 -30
-7 -89z m59 -22 c31 -14 25 -29 -11 -29 -15 0 -23 3 -20 7 4 3 2 12 -4 20 -14
17 0 17 35 2z"/>
<path d="M535 650 c3 -5 8 -10 11 -10 2 0 4 5 4 10 0 6 -5 10 -11 10 -5 0 -7
-4 -4 -10z"/>
<path d="M1225 635 c-39 -13 -39 -13 -9 -14 16 -1 39 6 50 14 23 17 12 17 -41
0z"/>
<path d="M1408 613 c6 -2 18 -2 25 0 6 3 1 5 -13 5 -14 0 -19 -2 -12 -5z"/>
<path d="M260 574 c-6 -14 -11 -42 -11 -62 -1 -20 -3 -29 -6 -19 -11 41 -23
12 -21 -47 2 -35 6 -62 9 -60 4 2 10 -3 13 -12 4 -10 14 -14 26 -11 13 3 25
-2 35 -16 17 -24 20 -16 5 13 -7 13 -6 21 5 30 18 15 20 34 3 24 -7 -5 -9 -2
-6 7 16 42 18 58 8 64 -5 3 -13 -1 -16 -9 -9 -23 -24 -20 -24 4 0 11 -4 20
-10 20 -13 0 -13 41 0 74 5 14 7 26 5 26 -3 0 -10 -12 -15 -26z"/>
<path d="M810 498 c0 -9 5 -20 10 -23 13 -8 13 5 0 25 -8 13 -10 13 -10 -2z"/>
<path d="M455 408 c-9 -23 17 -99 38 -112 20 -13 49 11 67 55 14 34 8 48 -14
30 -12 -10 -15 -8 -18 10 -4 31 -28 37 -28 7 l0 -23 -20 25 c-16 22 -20 23
-25 8z"/>
<path d="M920 352 c0 -15 28 -23 36 -9 4 7 4 9 -1 5 -4 -4 -14 -3 -22 3 -8 7
-13 8 -13 1z"/>
<path d="M975 340 c-3 -5 1 -10 9 -10 9 0 16 5 16 10 0 6 -4 10 -9 10 -6 0
-13 -4 -16 -10z"/>
<path d="M849 320 c-20 -16 -21 -19 -7 -20 10 0 22 9 28 20 13 25 8 25 -21 0z"/>
<path d="M1137 333 c-10 -10 -8 -23 4 -23 5 0 8 4 5 9 -4 5 0 12 6 14 7 3 8 6
2 6 -6 1 -14 -2 -17 -6z"/>
<path d="M1376 325 c-6 -18 2 -45 15 -45 5 0 9 -7 9 -15 0 -20 13 -19 33 3 22
24 21 35 -1 55 -23 21 -48 22 -56 2z"/>
<path d="M741 304 c-19 -13 -27 -24 -19 -24 8 0 28 11 44 25 37 32 20 31 -25
-1z"/>
<path d="M340 305 c0 -10 84 -45 105 -44 16 1 15 2 -5 8 -14 5 -40 15 -57 24
-34 18 -43 20 -43 12z"/>
<path d="M678 273 c7 -3 16 -2 19 1 4 3 -2 6 -13 5 -11 0 -14 -3 -6 -6z"/>
<path d="M508 253 c17 -2 47 -2 65 0 17 2 3 4 -33 4 -36 0 -50 -2 -32 -4z"/>
<path d="M1490 256 c0 -2 8 -10 18 -17 15 -13 16 -12 3 4 -13 16 -21 21 -21
13z"/>
<path d="M1601 198 c20 -16 40 -74 33 -93 -4 -9 0 -15 8 -15 24 0 27 10 12 38
-8 15 -14 34 -14 43 0 9 -12 21 -27 28 -23 9 -25 9 -12 -1z"/>
<path d="M1460 150 c0 -13 28 -25 38 -16 3 4 0 11 -8 16 -20 13 -30 12 -30 0z"/>
<path d="M1316 133 c-13 -13 -6 -32 10 -26 13 5 15 2 9 -15 -4 -13 -2 -22 4
-22 6 0 11 4 11 9 0 5 9 11 20 14 23 6 28 -8 6 -16 -9 -4 -12 -14 -9 -27 6
-21 6 -21 32 7 l26 28 -25 25 c-24 24 -70 37 -84 23z"/>
<path d="M1460 115 c0 -11 49 -52 57 -46 14 9 24 41 14 41 -5 0 -11 -6 -14
-12 -3 -10 -9 -8 -24 5 -19 16 -33 22 -33 12z"/>
<path d="M1580 90 c20 -13 43 -13 35 0 -3 6 -16 10 -28 10 -18 0 -19 -2 -7
-10z"/>
</g>
</svg>
