<?xml version="1.0" standalone="no"?>
<!DOCTYPE svg PUBLIC "-//W3C//DTD SVG 20010904//EN"
 "http://www.w3.org/TR/2001/REC-SVG-20010904/DTD/svg10.dtd">
<svg version="1.0" xmlns="http://www.w3.org/2000/svg"
 width="500.000000pt" height="500.000000pt" viewBox="0 0 500.000000 500.000000"
 preserveAspectRatio="xMidYMid meet">
<metadata>
Created by potrace 1.11, written by Peter Selinger 2001-2013
</metadata>
<g transform="translate(0.000000,500.000000) scale(0.100000,-0.100000)"
fill="#000000" stroke="none">
<path d="M2455 4479 c-22 -5 -49 -13 -60 -18 -11 -6 -42 -19 -70 -31 -76 -32
-95 -43 -95 -52 0 -5 -5 -6 -10 -3 -19 12 -185 -105 -248 -174 -103 -112 -121
-137 -115 -160 4 -17 1 -23 -16 -28 -17 -4 -20 -11 -16 -33 3 -17 -1 -32 -9
-39 -10 -8 -13 -23 -9 -46 5 -30 2 -36 -21 -46 -24 -11 -25 -15 -20 -64 7 -54
-6 -95 -30 -95 -18 0 -44 -54 -61 -130 -9 -42 -22 -71 -36 -82 l-21 -18 24 -9
c35 -13 120 -2 149 19 42 30 91 47 156 55 49 5 63 4 77 -10 12 -12 25 -15 44
-10 15 3 70 13 122 22 89 14 329 79 340 92 3 3 34 13 70 23 48 12 67 13 72 5
4 -7 3 -13 -2 -15 -6 -2 -10 -11 -10 -20 0 -19 20 -3 23 19 4 21 17 39 29 39
6 0 8 -9 5 -19 -2 -11 -2 -35 2 -53 7 -31 8 -30 15 22 9 64 44 110 86 110 61
0 189 90 170 120 -4 7 -13 10 -19 6 -6 -4 -9 -2 -6 6 3 8 -6 24 -20 36 -17 15
-25 32 -25 54 1 46 22 69 70 78 38 7 43 5 52 -16 6 -13 17 -24 24 -24 6 0 14
-7 18 -15 3 -8 15 -15 26 -15 11 0 20 -5 20 -10 0 -7 7 -7 21 0 13 7 19 19 17
33 -2 17 3 23 22 25 30 5 105 56 125 86 11 16 12 30 5 54 -6 24 -5 42 6 68 11
27 12 39 4 49 -12 15 -79 41 -94 37 -5 -2 -16 4 -26 13 -10 9 -31 20 -46 24
-23 6 -30 14 -32 39 -3 25 1 32 15 34 29 2 37 1 61 -6 29 -9 31 19 2 34 -23
12 -103 15 -148 5 l-32 -7 21 -17 c12 -10 19 -23 15 -29 -9 -16 -81 -36 -100
-29 -19 8 -21 43 -3 51 6 3 1 3 -13 0 -14 -4 -44 -20 -67 -36 -24 -16 -43 -26
-43 -22 0 4 -9 -5 -21 -20 -11 -14 -34 -33 -49 -41 -16 -8 -30 -25 -32 -37 -2
-16 -9 -22 -20 -20 -14 2 -18 -4 -18 -33 0 -19 -3 -35 -6 -35 -18 0 -33 40
-34 84 0 58 33 123 81 157 l31 22 -64 28 c-52 23 -76 28 -138 28 -41 -1 -93
-5 -115 -10z m212 -21 c19 -15 6 -28 -28 -28 -41 0 -48 -25 -15 -51 14 -11 26
-24 26 -28 0 -8 -60 -31 -82 -31 -9 0 -21 -7 -28 -15 -9 -11 -22 -14 -44 -10
-53 11 -66 16 -61 25 3 4 -5 10 -18 14 -21 5 -21 6 -4 23 15 16 19 16 27 3 5
-8 10 -11 10 -6 0 5 9 1 20 -9 13 -12 20 -14 20 -5 0 8 8 10 26 6 20 -5 33 -1
50 15 22 21 23 24 7 41 -9 10 -13 21 -10 25 4 3 2 12 -4 19 -20 24 0 35 49 28
26 -3 53 -11 59 -16z m-179 -20 c-3 -7 -19 -16 -36 -20 -18 -5 -32 -15 -32
-23 0 -9 -14 -24 -31 -34 -28 -17 -29 -19 -9 -24 12 -3 19 -10 16 -16 -4 -5 1
-14 10 -19 9 -5 14 -14 10 -21 -9 -14 -96 -15 -96 -1 0 19 5 25 18 22 9 -2 11
1 6 9 -5 9 -1 11 14 7 12 -4 22 -2 22 4 0 6 -22 7 -60 3 -50 -6 -61 -4 -66 9
-12 32 64 86 120 86 12 0 26 4 32 9 20 19 88 27 82 9z m572 -98 c12 -7 12 -11
-3 -28 -16 -17 -16 -21 -2 -32 23 -19 18 -49 -9 -56 -13 -3 -26 -14 -29 -25
-3 -10 -12 -19 -20 -19 -21 0 -31 32 -14 45 10 7 11 15 4 26 -6 9 -7 24 -2 35
4 11 7 23 6 28 -7 32 35 48 69 26z m-816 -32 c-3 -4 0 -8 5 -8 6 0 11 -7 11
-15 0 -8 -4 -15 -10 -15 -5 0 -10 -11 -10 -25 0 -14 5 -25 10 -25 6 0 10 -9
10 -20 0 -16 -7 -20 -30 -20 -23 0 -33 -6 -42 -25 -7 -15 -20 -25 -32 -25 -28
0 -41 -11 -41 -34 0 -10 -8 -24 -17 -30 -14 -8 -22 -6 -38 11 -11 12 -20 27
-20 33 0 5 -4 10 -10 10 -5 0 -10 13 -10 29 0 35 33 62 97 81 23 7 40 17 37
22 -12 18 8 48 32 48 13 0 24 4 24 9 0 6 9 9 19 8 11 0 17 -5 15 -9z m56 -18
c0 -5 -4 -10 -10 -10 -5 0 -10 5 -10 10 0 6 5 10 10 10 6 0 10 -4 10 -10z
m619 -37 c-7 -8 -19 -11 -27 -8 -10 4 -13 0 -9 -15 3 -13 0 -20 -8 -20 -35 0
-29 49 7 66 30 13 54 -2 37 -23z m267 12 c19 -14 19 -14 -3 -15 -20 0 -21 -4
-17 -45 5 -40 3 -45 -15 -45 -11 0 -23 5 -26 10 -12 19 -26 0 -15 -20 8 -16 5
-19 -20 -25 -16 -4 -34 -3 -40 0 -16 10 8 35 26 28 10 -4 14 -1 12 10 -2 8 9
26 23 39 20 19 26 32 22 52 -4 21 -2 26 14 26 11 0 28 -7 39 -15z m-458 -90
c-3 -3 -9 2 -12 12 -6 14 -5 15 5 6 7 -7 10 -15 7 -18z m-61 -22 c4 -11 -65
-29 -74 -19 -3 3 -3 12 1 21 7 18 67 17 73 -2z m291 -21 c3 -9 -2 -13 -14 -10
-9 1 -19 9 -22 16 -3 9 2 13 14 10 9 -1 19 -9 22 -16z m72 8 c0 -5 -4 -10 -10
-10 -5 0 -10 5 -10 10 0 6 5 10 10 10 6 0 10 -4 10 -10z m-270 -35 c0 -3 -9
-14 -19 -24 -17 -17 -21 -17 -31 -6 -7 8 -9 19 -5 25 6 10 55 15 55 5z m160
-25 c0 -6 -6 -20 -12 -33 -7 -12 -13 -23 -13 -23 0 -1 -10 -5 -22 -8 -44 -14
-53 62 -10 82 23 10 57 -1 57 -18z m-1010 -26 c0 -13 -21 -44 -30 -44 -14 0
-12 24 2 38 13 13 28 16 28 6z m913 -41 c6 -13 16 -23 24 -23 16 0 17 -22 2
-37 -5 -5 -12 -31 -13 -55 -4 -59 -12 -71 -42 -64 -14 4 -24 2 -24 -4 0 -5 5
-10 12 -10 8 0 8 -3 3 -9 -18 -17 -65 -1 -66 23 -1 17 -2 17 -6 4 -7 -29 -54
-21 -98 16 -37 32 -38 35 -20 42 11 4 25 13 32 20 13 13 75 9 105 -7 19 -10
19 -12 2 -30 -25 -28 -2 -23 25 5 l22 23 -25 38 c-32 47 -33 73 -3 84 35 14
59 8 70 -16z m-899 -52 c7 -26 6 -34 -10 -46 -16 -11 -22 -12 -39 -1 -28 19
-30 41 -5 66 27 27 42 22 54 -19z m613 -73 c-3 -10 0 -18 7 -18 14 0 15 -97 2
-118 -11 -18 -44 -14 -54 6 -12 22 -12 102 -1 102 5 0 8 3 8 8 -4 24 4 38 22
38 14 0 19 -5 16 -18z m367 -6 c3 -5 -1 -9 -9 -9 -8 0 -12 4 -9 9 3 4 7 8 9 8
2 0 6 -4 9 -8z m6 -26 c0 -3 -4 -8 -10 -11 -5 -3 -10 -1 -10 4 0 6 5 11 10 11
6 0 10 -2 10 -4z m30 -27 c0 -6 -4 -7 -10 -4 -5 3 -10 11 -10 16 0 6 5 7 10 4
6 -3 10 -11 10 -16z m-607 -11 c-5 -23 -5 -23 12 1 18 23 19 23 33 5 10 -13
16 -15 19 -6 6 17 31 15 51 -4 14 -15 14 -18 -9 -35 -13 -10 -32 -19 -41 -19
-9 0 -20 -9 -23 -20 -7 -23 -35 -27 -35 -5 0 12 -5 12 -37 1 -21 -7 -43 -11
-49 -9 -6 2 -17 -3 -24 -12 -17 -20 -38 -19 -43 3 -3 13 -6 11 -15 -10 -11
-27 -44 -38 -56 -19 -10 15 25 72 51 82 39 14 53 11 53 -13 l0 -22 16 22 c8
12 20 20 25 17 5 -4 9 0 9 8 0 11 52 55 67 57 0 0 -1 -10 -4 -22z m-183 -8 c0
-5 -4 -10 -10 -10 -5 0 -10 5 -10 10 0 6 5 10 10 10 6 0 10 -4 10 -10z m600
-26 c0 -8 -4 -12 -10 -9 -5 3 -10 10 -10 16 0 5 5 9 10 9 6 0 10 -7 10 -16z
m80 12 c0 -2 -7 -7 -16 -10 -8 -3 -12 -2 -9 4 6 10 25 14 25 6z m-900 -93 c0
-26 -16 -47 -29 -39 -14 9 -14 29 1 44 17 17 28 15 28 -5z m723 -24 c-11 -11
-91 -28 -98 -21 -9 9 69 39 88 34 10 -3 15 -8 10 -13z m-133 -39 c0 -5 -4 -10
-10 -10 -5 0 -10 5 -10 10 0 6 5 10 10 10 6 0 10 -4 10 -10z"/>
<path d="M3361 4254 c0 -11 3 -14 6 -6 3 7 2 16 -1 19 -3 4 -6 -2 -5 -13z"/>
<path d="M2550 3539 c0 -4 7 -23 15 -42 18 -44 19 -61 3 -51 -8 5 -9 2 -5 -10
4 -10 7 -21 7 -24 0 -4 5 0 11 8 9 12 10 11 6 -6 -2 -12 -1 -28 4 -35 5 -8 7
5 6 32 -2 38 1 45 14 42 9 -3 26 -22 38 -44 12 -21 27 -42 33 -45 6 -4 0 13
-15 37 -14 24 -36 62 -48 84 -12 22 -24 34 -26 27 -3 -8 -11 -5 -24 10 -10 13
-18 20 -19 17z"/>
<path d="M1998 3493 c7 -3 16 -2 19 1 4 3 -2 6 -13 5 -11 0 -14 -3 -6 -6z"/>
<path d="M1740 3400 c-89 -51 -168 -75 -216 -65 -25 5 -27 5 -10 -6 26 -16
112 -7 166 19 65 31 176 102 159 102 -8 0 -52 -22 -99 -50z"/>
<path d="M2719 3340 c-9 -51 3 -84 32 -88 l24 -3 -22 16 c-16 11 -23 28 -25
63 -3 45 -3 46 -9 12z"/>
<path d="M2600 3355 c1 -6 7 -21 16 -35 l15 -25 -7 25 c-7 26 -24 52 -24 35z"/>
<path d="M2630 3275 c0 -8 7 -15 16 -15 14 0 14 3 4 15 -7 8 -14 15 -16 15 -2
0 -4 -7 -4 -15z"/>
<path d="M1450 3189 c7 -11 14 -18 17 -15 8 8 -5 36 -17 36 -7 0 -7 -6 0 -21z"/>
<path d="M2740 3206 c0 -2 7 -6 15 -10 8 -3 15 -1 15 4 0 6 -7 10 -15 10 -8 0
-15 -2 -15 -4z"/>
<path d="M1890 3160 c0 -16 2 -30 4 -30 2 0 6 14 8 30 3 17 1 30 -4 30 -4 0
-8 -13 -8 -30z"/>
<path d="M2658 3144 c9 -26 21 -44 34 -47 13 -4 18 -12 16 -27 -2 -15 5 -28
21 -39 l25 -16 -16 25 c-9 14 -18 37 -22 53 -4 18 -13 27 -26 27 -15 0 -20 7
-20 26 0 21 3 25 18 19 9 -4 29 -11 43 -17 14 -5 32 -21 39 -36 7 -15 15 -22
17 -15 2 7 -1 21 -7 33 -6 11 -9 24 -6 28 2 4 -10 8 -27 8 -18 1 -48 6 -68 11
l-35 10 14 -43z"/>
<path d="M1442 3118 c6 -18 28 -21 28 -4 0 9 -7 16 -16 16 -9 0 -14 -5 -12
-12z"/>
<path d="M1510 3121 c0 -5 5 -13 11 -16 6 -4 8 -14 5 -22 -3 -8 -1 -11 4 -8
14 9 12 24 -5 41 -8 9 -15 11 -15 5z"/>
<path d="M2319 3105 c-100 -20 -265 -112 -336 -187 -44 -46 -98 -138 -113
-193 -13 -45 -14 -47 -44 -41 -16 4 -33 12 -37 18 -15 24 -20 -1 -9 -41 12
-47 25 -56 15 -11 -6 29 -6 30 20 20 44 -17 50 -12 74 59 54 159 206 296 391
352 89 27 278 34 318 11 13 -8 26 -11 29 -8 3 3 -7 11 -23 18 -42 17 -208 19
-285 3z"/>
<path d="M2655 3070 c27 -12 43 -12 25 0 -8 5 -22 9 -30 9 -10 0 -8 -3 5 -9z"/>
<path d="M1660 3062 c0 -7 5 -12 11 -12 6 0 8 -7 4 -17 -5 -15 -4 -16 6 -5 11
10 10 15 -4 29 -11 11 -17 13 -17 5z"/>
<path d="M2790 3015 c7 -8 17 -15 22 -15 5 0 3 7 -6 15 -8 8 -18 15 -22 15 -3
0 -1 -7 6 -15z"/>
<path d="M1817 3006 c-3 -8 1 -17 10 -20 8 -4 13 -12 10 -19 -2 -6 -1 -21 4
-32 6 -16 8 -14 8 12 1 17 -4 35 -9 38 -6 4 -8 10 -5 15 3 5 1 11 -4 14 -5 3
-11 0 -14 -8z"/>
<path d="M2821 2985 c0 -5 12 -29 27 -51 15 -23 32 -50 38 -60 7 -11 15 -16
19 -12 4 4 -8 27 -27 51 -18 25 -38 53 -45 63 -6 11 -12 15 -12 9z"/>
<path d="M1652 2960 c0 -14 2 -19 5 -12 2 6 2 18 0 25 -3 6 -5 1 -5 -13z"/>
<path d="M1692 2960 c0 -14 2 -19 5 -12 2 6 2 18 0 25 -3 6 -5 1 -5 -13z"/>
<path d="M1860 2934 c0 -8 5 -12 10 -9 6 3 10 10 10 16 0 5 -4 9 -10 9 -5 0
-10 -7 -10 -16z"/>
<path d="M1538 2880 c2 -33 1 -68 -4 -78 -4 -9 -6 -21 -5 -26 1 -4 -6 -15 -16
-23 -16 -13 -16 -14 -1 -9 9 3 19 0 21 -7 2 -7 3 -4 2 6 -2 9 0 17 5 17 4 0 8
41 9 90 1 50 -2 90 -7 90 -4 0 -6 -27 -4 -60z"/>
<path d="M1670 2920 c0 -5 5 -10 11 -10 5 0 7 5 4 10 -3 6 -8 10 -11 10 -2 0
-4 -4 -4 -10z"/>
<path d="M1842 2898 c5 -15 28 -23 28 -10 0 5 -7 13 -16 16 -10 4 -14 1 -12
-6z"/>
<path d="M2618 2893 c-9 -10 -19 -29 -23 -42 -4 -13 -25 -43 -47 -67 -41 -45
-42 -56 -5 -75 18 -9 20 -9 10 2 -20 20 -15 43 13 70 23 22 77 119 70 126 -1
2 -10 -5 -18 -14z"/>
<path d="M2820 2883 c-20 -10 -22 -13 -8 -18 9 -4 17 -14 17 -23 0 -9 7 -42
16 -72 8 -30 14 -64 11 -75 -3 -16 13 -33 75 -77 77 -56 100 -84 159 -192 27
-52 58 -172 46 -184 -4 -3 -17 4 -29 16 -13 12 -27 19 -32 15 -4 -5 -5 -2 -1
5 8 13 -20 29 -31 18 -8 -7 32 -82 60 -113 l20 -23 -27 0 c-23 0 -27 -4 -24
-22 2 -19 10 -24 42 -26 36 -3 38 -5 32 -32 -22 -110 -152 -289 -255 -348 -87
-50 -225 -90 -335 -98 -53 -4 -96 -11 -96 -16 0 -5 17 -9 38 -8 20 1 58 2 83
1 39 -1 45 -4 44 -21 -1 -11 -11 -30 -23 -43 -24 -26 -28 -37 -11 -37 5 0 8 4
5 9 -3 4 15 21 40 37 39 25 43 30 28 41 -29 21 0 36 96 48 44 6 108 30 155 60
29 19 73 37 97 41 23 4 57 14 73 22 17 9 35 15 40 13 6 -1 7 0 3 4 -4 4 -1 13
6 20 17 17 85 -3 78 -23 -2 -7 4 -24 13 -38 16 -25 16 -26 -3 -20 -13 5 -22 1
-26 -10 -5 -12 -2 -15 11 -9 94 36 243 17 243 -31 0 -7 10 -25 23 -39 18 -22
29 -26 62 -23 l40 4 -45 10 c-77 17 -78 73 -4 159 13 15 23 30 21 32 -6 5
-101 -31 -109 -42 -5 -6 -8 -4 -8 5 0 12 -2 12 -9 2 -5 -8 -21 -12 -37 -10
-21 2 -30 9 -32 26 -4 29 11 48 65 82 45 29 46 40 3 40 -14 0 -31 5 -38 12 -9
9 -12 9 -12 1 0 -7 9 -15 20 -18 27 -9 15 -25 -18 -25 -17 0 -22 -3 -15 -8 9
-6 7 -12 -7 -22 -11 -8 -20 -20 -20 -27 0 -18 -89 -17 -112 1 -24 18 -23 25
10 38 l27 12 -27 4 c-33 4 -37 22 -8 29 32 8 24 33 -10 33 -16 0 -30 5 -30 10
0 6 4 10 9 10 5 0 17 8 26 17 14 14 20 14 37 4 18 -11 24 -10 41 8 16 16 18
23 8 34 -8 11 -9 16 -1 19 16 5 2 35 -15 35 -8 0 -15 -4 -15 -9 0 -4 -4 -8
-10 -8 -5 0 -10 7 -10 15 0 18 34 37 53 29 16 -6 71 39 60 49 -3 4 -2 7 4 7 6
0 8 12 5 26 -3 18 -1 25 6 20 13 -8 42 3 42 16 0 21 -27 34 -70 32 l-45 -2 45
16 c25 8 52 23 61 34 21 24 29 23 30 -4 1 -16 3 -18 6 -7 2 10 13 19 24 22 18
5 18 3 -5 -28 -36 -47 -34 -62 9 -60 19 0 35 -3 35 -8 0 -4 5 -5 10 -2 6 3 10
1 10 -4 0 -6 3 -10 8 -10 4 1 18 1 32 0 20 -1 22 -3 10 -11 -12 -8 -12 -10 -1
-10 10 0 12 -8 8 -30 -5 -24 -3 -30 11 -30 9 0 26 -7 36 -15 11 -8 25 -15 30
-15 6 0 4 5 -4 10 -11 7 -7 8 15 6 55 -6 40 -46 -17 -46 -32 0 -35 -8 -12 -25
13 -9 24 -8 50 4 29 14 33 21 34 55 l0 39 37 -6 c20 -4 40 -11 43 -18 4 -6 18
-16 31 -23 20 -10 29 -9 56 6 17 11 34 25 37 33 3 8 10 15 16 15 19 0 10 -15
-25 -39 -33 -22 -34 -25 -18 -37 17 -13 17 -14 -2 -8 -16 5 -17 4 -5 -5 8 -5
26 -8 40 -5 25 4 25 4 2 -6 -13 -5 -20 -14 -17 -20 4 -7 14 -5 28 5 31 22 43
18 16 -5 -15 -12 -20 -23 -14 -27 6 -5 10 -36 11 -70 l1 -62 -31 -3 c-18 -2
-32 -9 -34 -19 -2 -12 5 -14 33 -11 27 3 40 0 50 -14 8 -11 15 -14 15 -7 0 6
-6 18 -14 26 -9 8 -11 19 -6 27 5 8 5 21 1 29 -14 26 -11 79 4 85 20 7 72 -12
79 -30 4 -11 0 -13 -17 -9 -24 6 -67 -18 -55 -31 5 -4 17 1 28 11 11 10 22 16
25 13 3 -3 -1 -11 -10 -18 -8 -7 -15 -17 -15 -23 0 -6 10 -1 23 10 26 25 67
39 67 24 0 -6 -8 -11 -19 -11 -10 0 -24 -7 -31 -15 -8 -9 -9 -15 -2 -15 6 0
14 5 17 10 10 16 21 12 53 -17 25 -21 30 -32 25 -55 -3 -17 -1 -28 6 -28 6 0
12 6 13 13 0 6 2 17 3 22 2 6 3 14 4 19 0 4 12 1 26 -8 22 -15 28 -15 65 0 22
9 40 22 40 30 0 7 -6 11 -14 8 -8 -3 -17 0 -21 5 -3 6 -21 18 -40 25 -29 13
-35 21 -46 73 -6 32 -19 64 -27 70 -9 7 -13 16 -9 19 6 7 -88 149 -125 188
-10 11 -18 26 -18 35 0 8 -3 12 -6 9 -3 -3 -16 5 -29 18 -13 13 -33 24 -45 24
-11 0 -20 7 -20 15 0 12 -25 33 -50 41 -3 1 -15 5 -27 9 -13 4 -21 11 -18 14
2 4 -12 14 -31 21 -21 9 -33 19 -30 27 3 7 1 13 -4 13 -6 0 -10 -7 -10 -15 0
-16 -56 -49 -64 -37 -3 5 -21 6 -40 4 -20 -2 -34 -8 -31 -12 2 -4 -6 -5 -19
-3 -13 3 -34 -1 -47 -8 -13 -7 -31 -12 -39 -11 -10 1 -11 -1 -2 -4 20 -9 3
-24 -26 -24 -18 0 -31 7 -37 22 -6 12 -16 24 -24 26 -9 3 -11 0 -6 -8 6 -9 0
-12 -23 -8 l-31 4 15 -34 c8 -19 14 -41 14 -49 0 -18 -39 -52 -60 -53 -8 0
-21 -4 -29 -9 -11 -7 -11 -12 2 -32 8 -13 18 -36 21 -52 5 -23 2 -29 -19 -37
-14 -5 -32 -7 -40 -5 -8 3 -21 7 -29 9 -12 4 -12 11 1 48 8 23 19 45 24 49 5
3 12 29 16 58 6 51 5 53 -18 49 -18 -2 -27 -13 -39 -48 l-15 -45 -5 50 c-6 59
-14 73 -46 85 -19 8 -72 89 -75 117 -1 5 -9 20 -20 34 -16 22 -16 30 -5 62 7
21 15 36 17 35 3 -2 -10 11 -28 29 -44 40 -28 50 30 18 31 -16 44 -19 41 -10
-3 8 -26 24 -50 35 -24 12 -44 26 -44 31 0 6 -5 7 -10 4 -6 -3 -13 2 -16 12
-18 56 -29 75 -48 85 -20 10 -20 10 2 -14 22 -25 30 -72 13 -83 -6 -3 -14 2
-19 11 -5 10 -25 25 -43 33 -29 14 -35 23 -39 56 -5 40 -6 40 -30 28z m117
-152 c28 -32 30 -38 16 -53 -13 -15 -11 -16 26 -11 37 5 41 4 41 -16 0 -13
-10 -26 -24 -33 -21 -9 -30 -7 -58 15 -64 51 -70 58 -65 83 2 13 0 24 -4 24
-5 0 -9 9 -9 21 0 30 37 16 77 -30z m710 -307 c-3 -3 -12 -4 -19 -1 -8 3 -5 6
6 6 11 1 17 -2 13 -5z m113 -29 c-7 -8 -20 -15 -28 -15 -13 0 -12 3 4 15 25
19 40 19 24 0z m-165 -5 c-3 -5 -17 -10 -31 -10 -14 0 -22 4 -19 10 3 6 17 10
31 10 14 0 22 -4 19 -10z m230 -4 c8 -7 11 -16 8 -20 -4 -3 -2 -6 4 -6 6 0 13
-9 16 -20 4 -15 14 -20 40 -20 20 0 44 -8 57 -20 13 -11 27 -20 31 -20 16 0
32 -41 20 -53 -8 -8 -11 -6 -11 7 0 9 -4 14 -10 11 -5 -3 -10 -2 -10 4 0 6 -6
8 -14 5 -7 -3 -16 2 -19 10 -7 18 -27 22 -27 5 0 -5 5 -7 10 -4 6 3 10 1 10
-5 0 -6 8 -14 18 -17 21 -8 58 -35 60 -46 1 -4 13 -29 27 -57 29 -58 30 -67 8
-92 -22 -24 -30 -23 -37 7 -3 13 -16 34 -28 45 -25 23 -17 40 9 19 17 -13 17
-13 3 6 -27 37 -53 55 -74 54 -20 -2 -20 -2 2 -6 12 -2 22 -8 22 -13 0 -15
-25 -17 -47 -3 -17 11 -27 12 -42 3 -21 -11 -31 3 -11 15 15 9 12 25 -6 25 -8
0 -13 -4 -10 -9 3 -5 -1 -12 -10 -15 -8 -3 -12 -10 -9 -16 3 -5 1 -10 -5 -10
-14 0 -40 25 -40 38 0 15 -43 23 -53 9 -7 -9 -10 -9 -14 1 -2 6 -9 10 -14 7
-5 -4 -6 0 -4 7 3 8 22 14 46 14 29 1 37 -1 28 -8 -9 -6 -1 -7 24 -3 23 4 37
2 33 -3 -3 -5 6 -7 20 -4 14 2 23 6 22 8 -2 1 -54 12 -115 23 -77 13 -123 17
-148 11 -34 -8 -89 -5 -124 6 -22 7 3 27 36 28 26 1 28 4 27 39 0 20 3 37 8
37 4 0 8 -4 8 -10 0 -5 8 -11 18 -11 16 -1 16 -2 -1 -6 -14 -4 -16 -8 -6 -19
8 -10 8 -14 0 -14 -6 0 -11 -5 -11 -11 0 -7 7 -8 18 -4 9 4 28 9 42 11 14 3
41 11 60 18 50 19 125 19 161 0 17 -8 36 -13 42 -10 8 3 6 5 -3 5 -8 1 -26 10
-40 20 -20 16 -22 21 -11 35 9 11 10 16 2 16 -6 0 -11 -4 -11 -9 0 -5 -9 -7
-20 -4 -34 9 -22 25 23 32 5 0 15 -5 22 -13z m-208 -18 c-3 -8 -6 -5 -6 6 -1
11 2 17 5 13 3 -3 4 -12 1 -19z m43 -148 c0 -5 -5 -10 -11 -10 -5 0 -7 5 -4
10 3 6 8 10 11 10 2 0 4 -4 4 -10z m370 0 c0 -5 -4 -10 -10 -10 -5 0 -10 5
-10 10 0 6 5 10 10 10 6 0 10 -4 10 -10z m48 -52 c24 -30 32 -50 32 -81 l0
-41 -30 40 c-16 21 -30 44 -30 49 0 6 -6 22 -14 37 -13 24 -12 39 3 37 3 0 21
-18 39 -41z m-334 11 c-6 -11 -24 -2 -24 11 0 5 7 7 15 4 8 -4 12 -10 9 -15z
m-56 -23 c3 -13 -1 -17 -14 -14 -11 2 -20 11 -22 22 -3 13 1 17 14 14 11 -2
20 -11 22 -22z m149 -38 c-3 -8 -6 -5 -6 6 -1 11 2 17 5 13 3 -3 4 -12 1 -19z
m43 -8 c-8 -5 -19 -10 -25 -10 -5 0 -3 5 5 10 8 5 20 10 25 10 6 0 3 -5 -5
-10z m198 -57 c-3 -18 -17 -33 -31 -33 -5 0 -1 7 7 16 9 8 16 20 16 25 0 5 2
9 5 9 3 0 5 -8 3 -17z m60 -84 c-3 -8 -7 -3 -11 10 -4 17 -3 21 5 13 5 -5 8
-16 6 -23z m26 -24 c3 -8 1 -15 -4 -15 -6 0 -10 7 -10 15 0 8 2 15 4 15 2 0 6
-7 10 -15z m-981 -92 c-7 -2 -19 -2 -25 0 -7 3 -2 5 12 5 14 0 19 -2 13 -5z
m137 -78 c0 -7 8 -19 18 -25 13 -8 5 -9 -33 -6 -60 6 -55 4 -55 16 0 5 10 9
23 7 13 -1 21 3 20 11 -2 6 4 12 12 12 8 0 15 -7 15 -15z m148 -25 c-8 -13
-23 -20 -43 -20 l-30 1 35 18 c46 25 53 25 38 1z"/>
<path d="M3776 2191 c-4 -5 -2 -12 3 -15 5 -4 12 -2 15 3 4 5 2 12 -3 15 -5 4
-12 2 -15 -3z"/>
<path d="M3878 2193 c7 -3 16 -2 19 1 4 3 -2 6 -13 5 -11 0 -14 -3 -6 -6z"/>
<path d="M4000 2090 c0 -6 7 -13 15 -16 8 -4 12 -11 8 -17 -3 -6 -1 -7 5 -3
17 10 15 19 -8 34 -13 7 -20 8 -20 2z"/>
<path d="M1716 2872 c7 -4 14 -18 17 -32 4 -21 4 -20 6 8 1 24 -3 32 -16 32
-12 0 -14 -3 -7 -8z"/>
<path d="M1640 2845 c1 -26 2 -28 11 -12 8 14 8 22 0 30 -8 8 -11 3 -11 -18z"/>
<path d="M1698 2840 c5 -35 8 -37 15 -10 3 10 -1 24 -7 29 -10 8 -11 3 -8 -19z"/>
<path d="M2256 2806 c-9 -14 -16 -38 -16 -54 0 -50 65 -96 107 -76 14 6 8 9
-22 12 -22 2 -45 8 -52 13 -22 19 -26 68 -8 95 9 14 15 28 12 30 -2 3 -12 -7
-21 -20z"/>
<path d="M2765 2810 c-10 -11 -15 -20 -11 -20 4 0 16 9 28 20 12 11 17 20 11
20 -5 0 -18 -9 -28 -20z"/>
<path d="M1631 2784 c0 -11 3 -14 6 -6 3 7 2 16 -1 19 -3 4 -6 -2 -5 -13z"/>
<path d="M2635 2782 c-6 -4 -21 -22 -34 -40 l-24 -34 31 16 c17 9 40 16 51 16
11 0 23 5 26 10 4 6 -5 10 -19 10 -27 0 -35 15 -13 23 6 3 8 6 2 6 -5 0 -15
-3 -20 -7z"/>
<path d="M2688 2783 c6 -2 18 -2 25 0 6 3 1 5 -13 5 -14 0 -19 -2 -12 -5z"/>
<path d="M1481 2759 c-7 -12 -10 -23 -8 -26 3 -3 11 5 17 17 15 28 8 35 -9 9z"/>
<path d="M2320 2765 c0 -8 7 -15 15 -15 8 0 15 7 15 15 0 8 -7 15 -15 15 -8 0
-15 -7 -15 -15z"/>
<path d="M2715 2760 c-19 -8 -19 -9 2 -9 12 -1 25 4 28 9 7 12 -2 12 -30 0z"/>
<path d="M3288 2645 c-3 -22 -2 -47 3 -55 7 -12 8 -10 9 8 0 12 5 22 11 22 8
0 8 4 1 13 -5 6 -12 21 -14 32 -3 12 -6 5 -10 -20z"/>
<path d="M3120 2664 c0 -11 66 -54 83 -54 7 0 23 -7 35 -16 13 -9 22 -11 22
-4 0 6 -11 15 -25 20 -14 6 -37 15 -52 21 -22 8 -24 12 -13 19 13 8 12 10 -2
10 -9 0 -23 3 -32 6 -9 3 -16 2 -16 -2z"/>
<path d="M1681 2644 c0 -11 3 -14 6 -6 3 7 2 16 -1 19 -3 4 -6 -2 -5 -13z"/>
<path d="M3089 2574 c-9 -19 -14 -36 -10 -38 8 -5 34 50 29 63 -1 4 -10 -7
-19 -25z"/>
<path d="M3047 2593 c-4 -3 -7 -11 -7 -17 0 -6 5 -5 12 2 6 6 9 14 7 17 -3 3
-9 2 -12 -2z"/>
<path d="M3493 2564 c11 -19 -38 -36 -92 -33 -58 4 -64 -4 -21 -26 42 -22 62
-19 100 15 28 25 31 32 20 43 -7 6 -10 7 -7 1z"/>
<path d="M1632 2550 c-36 -8 -72 -36 -72 -55 0 -7 6 -18 14 -24 10 -8 12 -21
7 -39 -6 -22 -15 -28 -47 -33 -21 -4 -63 -14 -92 -23 -44 -14 -54 -22 -67 -53
-9 -20 -24 -42 -34 -50 -11 -7 -38 -40 -60 -74 -30 -45 -41 -71 -41 -100 0
-61 -52 -73 -73 -17 -6 17 -16 7 -18 -18 -5 -52 4 -86 35 -132 31 -47 34 -56
34 -133 0 -57 4 -84 14 -90 19 -13 28 -11 28 6 0 8 -7 15 -15 15 -12 0 -15 14
-15 63 0 79 8 108 29 106 48 -7 192 25 228 50 25 18 30 41 10 41 -16 0 -47 32
-47 48 0 22 40 52 68 52 15 0 43 -11 62 -25 41 -30 56 -31 70 -5 7 13 21 20
40 20 45 0 64 44 58 137 l-5 73 51 1 c38 0 46 3 31 9 -11 5 -36 9 -56 9 -32 1
-38 5 -54 41 -17 38 -17 41 5 100 21 56 21 61 6 85 -17 26 -35 29 -94 15z m76
-32 c2 -12 -3 -18 -13 -18 -13 0 -15 -3 -7 -13 13 -16 -5 -97 -28 -124 -8 -10
-24 -32 -34 -48 -10 -17 -34 -43 -52 -58 -19 -16 -34 -34 -34 -40 0 -7 5 -4
11 6 5 9 15 17 20 17 6 0 31 16 57 35 l46 36 13 -26 c8 -14 19 -23 25 -19 7 4
8 3 4 -5 -4 -6 -3 -18 3 -24 5 -7 13 -31 17 -54 5 -34 2 -45 -15 -62 -12 -12
-32 -21 -46 -21 -15 0 -25 -6 -25 -14 0 -27 -19 -27 -65 -1 -24 15 -61 28 -80
29 -20 2 -34 1 -31 -1 5 -6 -26 -43 -36 -43 -4 0 -4 7 -1 17 5 11 3 14 -6 9
-8 -5 -10 -17 -6 -30 3 -11 8 -29 10 -40 2 -10 10 -24 16 -32 10 -12 9 -13 -5
-8 -9 3 -16 1 -16 -5 0 -6 8 -11 17 -11 9 0 13 -3 10 -7 -6 -6 -28 -10 -65
-12 -7 -1 -11 -4 -9 -8 13 -21 -162 -18 -182 2 -5 6 -12 21 -16 34 l-7 24 35
-21 c45 -28 125 -31 123 -4 -1 13 9 18 39 22 34 5 36 6 16 12 -13 4 -20 11
-16 17 9 15 1 14 -48 -9 -61 -28 -94 -32 -92 -12 0 10 9 29 18 43 12 18 16 36
11 53 -8 32 20 80 42 72 9 -3 18 3 23 17 5 12 19 32 30 44 12 12 21 32 21 43
0 12 6 28 14 36 8 7 16 19 18 25 2 7 30 14 65 16 47 3 62 0 67 -12 11 -30 -14
-60 -29 -35 -4 6 -15 1 -26 -12 -14 -16 -22 -19 -25 -10 -8 17 -34 15 -34 -3
0 -8 3 -14 8 -13 11 2 62 -14 62 -20 0 -16 -36 -42 -59 -43 -26 -1 -26 -1 3
-9 37 -11 40 -9 73 48 15 26 30 49 34 52 25 19 53 91 55 145 1 33 3 63 3 67 1
10 53 27 76 25 11 -1 21 -10 23 -19z m-138 -147 c0 -17 -15 -19 -28 -5 -11 12
-9 14 8 14 11 0 20 -4 20 -9z"/>
<path d="M1506 2163 c-6 -14 -5 -15 5 -6 7 7 10 15 7 18 -3 3 -9 -2 -12 -12z"/>
<path d="M1837 2548 c4 -7 8 -31 9 -53 0 -47 36 -225 45 -225 7 0 3 41 -11
119 -6 30 -10 78 -10 107 0 38 -4 53 -16 58 -23 9 -26 8 -17 -6z"/>
<path d="M3126 2545 c-12 -9 -16 -20 -12 -31 6 -15 21 -12 21 4 0 4 4 13 9 20
12 19 4 22 -18 7z"/>
<path d="M1000 2533 c0 -26 31 -147 41 -157 12 -14 23 22 11 37 -6 6 -16 40
-23 75 -12 57 -29 84 -29 45z"/>
<path d="M3175 2530 c-4 -6 -11 -7 -17 -4 -6 4 -8 3 -5 -3 3 -5 -3 -17 -14
-26 -16 -14 -27 -47 -15 -47 2 0 20 16 40 36 31 31 41 36 67 30 27 -5 30 -4
19 9 -14 17 -66 20 -75 5z"/>
<path d="M1367 2513 c-12 -12 -7 -22 8 -17 8 4 15 10 15 15 0 11 -14 12 -23 2z"/>
<path d="M3090 2515 c0 -5 5 -17 10 -25 5 -8 10 -10 10 -5 0 6 -5 17 -10 25
-5 8 -10 11 -10 5z"/>
<path d="M1770 2475 c-19 -36 -8 -40 12 -4 9 16 14 29 9 29 -4 0 -14 -11 -21
-25z"/>
<path d="M3707 2469 c-4 -16 -3 -18 9 -8 7 6 11 15 8 20 -8 13 -11 11 -17 -12z"/>
<path d="M1300 2468 c0 -9 5 -20 10 -23 13 -8 13 5 0 25 -8 13 -10 13 -10 -2z"/>
<path d="M1810 2470 c0 -5 5 -10 10 -10 6 0 10 5 10 10 0 6 -4 10 -10 10 -5 0
-10 -4 -10 -10z"/>
<path d="M3325 2470 c3 -5 8 -10 11 -10 2 0 4 5 4 10 0 6 -5 10 -11 10 -5 0
-7 -4 -4 -10z"/>
<path d="M1157 2422 c5 -43 3 -55 -12 -66 -11 -8 -14 -15 -8 -19 6 -4 14 0 17
9 3 8 10 13 16 9 9 -6 -29 -84 -59 -119 -15 -18 -15 -18 7 -7 13 7 28 24 35
39 6 15 20 40 30 56 13 18 16 30 9 35 -6 3 -17 31 -26 61 l-15 55 6 -53z"/>
<path d="M1783 2435 c-3 -9 -3 -19 1 -22 3 -4 6 1 6 11 0 13 5 16 23 11 17 -5
19 -4 7 4 -21 15 -30 14 -37 -4z"/>
<path d="M955 2420 c4 -6 11 -8 16 -5 14 9 11 15 -7 15 -8 0 -12 -5 -9 -10z"/>
<path d="M975 2380 c3 -5 14 -10 23 -10 15 0 15 2 2 10 -20 13 -33 13 -25 0z"/>
<path d="M1112 2374 c-7 -8 -12 -20 -9 -27 2 -7 9 -2 16 11 15 28 11 36 -7 16z"/>
<path d="M1737 2371 c-4 -17 -3 -21 5 -13 5 5 8 16 6 23 -3 8 -7 3 -11 -10z"/>
<path d="M1840 2360 c0 -5 5 -10 11 -10 5 0 7 5 4 10 -3 6 -8 10 -11 10 -2 0
-4 -4 -4 -10z"/>
<path d="M1300 2344 c0 -8 5 -12 10 -9 6 3 10 10 10 16 0 5 -4 9 -10 9 -5 0
-10 -7 -10 -16z"/>
<path d="M1749 2343 c-12 -16 -12 -17 1 -7 8 6 22 14 30 17 13 5 12 6 -1 6 -9
1 -23 -7 -30 -16z"/>
<path d="M985 2316 c10 -14 19 -26 22 -26 7 0 -17 39 -28 46 -6 3 -3 -5 6 -20z"/>
<path d="M1840 2329 c0 -5 5 -7 10 -4 6 3 10 8 10 11 0 2 -4 4 -10 4 -5 0 -10
-5 -10 -11z"/>
<path d="M1310 2315 c-11 -13 -10 -14 4 -9 9 3 16 10 16 15 0 13 -6 11 -20 -6z"/>
<path d="M931 2304 c0 -11 3 -14 6 -6 3 7 2 16 -1 19 -3 4 -6 -2 -5 -13z"/>
<path d="M1010 2271 c0 -5 7 -11 14 -14 10 -4 13 -1 9 9 -6 15 -23 19 -23 5z"/>
<path d="M1040 2230 c0 -5 5 -10 11 -10 5 0 7 5 4 10 -3 6 -8 10 -11 10 -2 0
-4 -4 -4 -10z"/>
<path d="M2713 2089 l6 -74 -21 38 c-23 38 -47 53 -27 16 8 -16 8 -20 -1 -14
-6 4 -16 17 -21 29 -7 15 -8 9 -4 -24 3 -25 17 -69 30 -98 20 -44 22 -57 12
-72 -15 -25 -3 -36 48 -45 56 -9 73 12 89 113 11 65 10 82 -1 98 -9 13 -10 20
-2 25 6 4 8 12 4 18 -9 15 -35 -4 -35 -25 0 -29 -16 -12 -30 34 -10 31 -21 48
-34 51 -18 3 -19 -2 -13 -70z"/>
<path d="M3704 2026 c-27 -15 -47 -21 -55 -15 -8 5 -21 8 -29 8 -9 0 -6 -5 8
-11 12 -6 22 -15 22 -20 0 -5 -6 -6 -12 -2 -7 4 -10 3 -5 -1 17 -19 49 -14 70
11 15 17 34 26 57 27 34 2 35 1 33 -33 l-2 -35 15 34 c17 38 12 46 -31 55 -22
4 -42 -1 -71 -18z"/>
<path d="M4250 2035 c0 -9 9 -19 20 -22 11 -3 20 -9 20 -14 0 -5 5 -9 10 -9
19 0 10 19 -20 40 -26 19 -30 19 -30 5z"/>
<path d="M3880 2026 c0 -2 8 -10 18 -17 15 -13 16 -12 3 4 -13 16 -21 21 -21
13z"/>
<path d="M3316 2004 c-33 -33 -8 -62 38 -44 32 12 41 28 26 45 -16 19 -45 19
-64 -1z m49 -14 c-3 -5 -13 -10 -21 -10 -8 0 -12 5 -9 10 3 6 13 10 21 10 8 0
12 -4 9 -10z"/>
<path d="M3570 2009 c0 -5 5 -7 10 -4 6 3 10 8 10 11 0 2 -4 4 -10 4 -5 0 -10
-5 -10 -11z"/>
<path d="M880 1939 c0 -5 19 -9 42 -9 49 0 47 5 -4 13 -21 3 -38 2 -38 -4z"/>
<path d="M1002 1920 c0 -14 2 -19 5 -12 2 6 2 18 0 25 -3 6 -5 1 -5 -13z"/>
<path d="M1111 1922 c-1 -21 4 -25 47 -38 10 -3 10 -9 2 -25 -7 -11 -9 -23 -6
-27 9 -9 34 20 38 43 2 15 -5 22 -34 29 -20 5 -39 16 -41 25 -3 10 -5 7 -6 -7z"/>
<path d="M982 1874 c4 -21 22 -23 26 -1 2 10 -3 17 -13 17 -10 0 -15 -6 -13
-16z"/>
<path d="M4340 1860 c-13 -8 -12 -10 3 -10 9 0 17 5 17 10 0 12 -1 12 -20 0z"/>
<path d="M2245 1771 c30 -119 49 -281 42 -362 -9 -106 -24 -160 -72 -255 -101
-201 -244 -279 -531 -291 -149 -6 -206 3 -299 49 -33 16 -71 34 -85 39 -23 10
-24 10 -6 -10 26 -28 114 -69 176 -81 67 -13 266 -13 350 0 72 11 182 40 190
51 3 3 21 14 40 24 19 10 49 34 67 54 17 20 52 59 77 86 25 28 51 62 57 78 14
33 14 33 64 2 22 -13 59 -33 82 -44 23 -12 48 -27 56 -35 8 -8 32 -22 53 -32
32 -14 35 -18 19 -21 -11 -3 -24 -9 -29 -14 -6 -5 -19 -9 -30 -9 -10 0 -17 -2
-14 -5 3 -3 37 0 75 6 66 11 71 10 121 -15 64 -33 88 -35 70 -6 -7 11 -23 20
-35 20 -12 0 -25 5 -28 11 -12 19 3 21 35 6 17 -9 38 -13 46 -10 7 3 14 0 14
-7 0 -9 4 -9 13 -3 6 6 24 13 39 17 23 5 26 3 21 -10 -5 -13 -2 -15 17 -9 14
5 20 3 16 -3 -4 -6 2 -8 14 -5 11 3 17 9 14 14 -3 5 -1 16 4 25 8 15 10 15 16
-1 5 -14 9 -15 20 -6 8 7 25 13 38 14 28 2 108 39 108 49 0 4 -18 6 -39 3 -28
-2 -38 0 -36 8 3 7 1 18 -3 25 -11 16 -60 0 -69 -24 -4 -11 -8 -12 -13 -4 -6
9 -15 8 -36 -3 -16 -8 -61 -25 -101 -37 -69 -22 -74 -22 -108 -6 -19 9 -35 21
-35 26 0 6 -8 10 -17 10 -10 0 -29 9 -43 20 -14 11 -31 20 -39 20 -7 0 -47 20
-88 45 -40 25 -80 45 -88 45 -7 0 -17 5 -20 11 -4 5 -18 14 -32 20 -26 10 -26
17 2 85 11 26 20 32 71 43 33 7 64 17 70 22 6 5 42 16 80 24 82 19 186 53 269
88 34 14 89 29 122 32 56 7 132 39 121 51 -5 4 -131 -32 -218 -63 -25 -8 -81
-21 -125 -27 -70 -10 -85 -10 -120 5 -22 9 -71 27 -110 39 -81 25 -133 49
-155 70 -9 8 -29 64 -43 124 -15 61 -31 114 -36 119 -5 5 1 -32 14 -82z m140
-328 c30 -15 55 -30 55 -34 0 -7 -79 -29 -104 -29 -12 0 -16 11 -16 45 0 25 2
45 5 45 2 0 29 -12 60 -27z m135 2 c-7 -8 -17 -15 -23 -15 -6 0 -2 7 9 15 25
19 30 19 14 0z m-150 -275 c0 -5 -2 -10 -4 -10 -3 0 -8 5 -11 10 -3 6 -1 10 4
10 6 0 11 -4 11 -10z m70 -31 c0 -6 -4 -7 -10 -4 -5 3 -10 11 -10 16 0 6 5 7
10 4 6 -3 10 -11 10 -16z m385 -104 c-45 -19 -81 -29 -72 -19 9 9 74 32 92 32
6 0 -3 -5 -20 -13z"/>
<path d="M1065 1820 c4 -6 11 -8 16 -5 14 9 11 15 -7 15 -8 0 -12 -5 -9 -10z"/>
<path d="M1110 1825 c0 -2 10 -10 23 -16 20 -11 21 -11 8 4 -13 16 -31 23 -31
12z"/>
<path d="M4320 1821 c0 -6 5 -13 10 -16 6 -3 10 1 10 9 0 9 -4 16 -10 16 -5 0
-10 -4 -10 -9z"/>
<path d="M1151 1795 c-13 -14 -18 -25 -13 -25 6 0 14 5 17 10 4 6 11 8 16 5 5
-4 6 2 2 11 -5 13 -3 16 10 11 9 -3 17 -2 17 3 0 18 -25 10 -49 -15z"/>
<path d="M3810 1781 l0 -40 28 15 c15 7 46 14 70 14 24 0 41 4 38 9 -3 4 -30
7 -61 5 -55 -3 -70 6 -37 25 14 9 13 10 -10 11 -26 0 -28 -3 -28 -39z"/>
<path d="M4350 1804 c0 -8 5 -12 10 -9 6 3 10 10 10 16 0 5 -4 9 -10 9 -5 0
-10 -7 -10 -16z"/>
<path d="M4325 1779 c4 -6 0 -9 -10 -7 -10 2 -20 -3 -22 -9 -5 -13 38 -19 50
-7 8 8 -3 34 -15 34 -5 0 -6 -5 -3 -11z"/>
<path d="M4300 1729 c0 -5 5 -7 10 -4 6 3 10 8 10 11 0 2 -4 4 -10 4 -5 0 -10
-5 -10 -11z"/>
<path d="M1221 1662 c-1 -24 -6 -52 -11 -63 -7 -12 -7 -19 -1 -19 21 0 30 37
22 81 l-9 44 -1 -43z"/>
<path d="M3677 1693 c-4 -6 -4 -19 -1 -30 5 -15 4 -15 -5 -3 -5 8 -13 12 -16
9 -10 -10 20 -28 33 -20 9 5 10 15 4 31 -5 14 -11 19 -15 13z"/>
<path d="M3620 1650 c-12 -7 -10 -9 7 -7 12 0 19 5 17 9 -6 10 -6 10 -24 -2z"/>
<path d="M1281 1628 c0 -10 8 -22 19 -28 14 -7 20 -7 20 0 0 5 -6 10 -14 10
-8 0 -17 8 -19 18 -4 16 -5 16 -6 0z"/>
<path d="M3588 1635 c-7 -7 24 -75 34 -75 11 0 10 5 -6 45 -15 36 -19 39 -28
30z"/>
<path d="M1647 1613 c-13 -12 -7 -33 8 -33 8 0 15 9 15 20 0 20 -11 26 -23 13z"/>
<path d="M3068 1593 c7 -3 16 -2 19 1 4 3 -2 6 -13 5 -11 0 -14 -3 -6 -6z"/>
<path d="M1421 1566 c2 -2 20 -11 39 -20 l35 -17 -25 20 c-14 11 -31 21 -39
21 -8 0 -12 -2 -10 -4z"/>
<path d="M3560 1540 c0 -11 4 -20 9 -20 5 0 7 9 4 20 -3 11 -7 20 -9 20 -2 0
-4 -9 -4 -20z"/>
<path d="M1505 1530 c-4 -6 3 -10 14 -10 25 0 27 6 6 13 -8 4 -17 2 -20 -3z"/>
<path d="M2550 1529 c0 -5 5 -7 10 -4 6 3 10 8 10 11 0 2 -4 4 -10 4 -5 0 -10
-5 -10 -11z"/>
<path d="M3262 1528 c-24 -5 -41 -12 -39 -15 9 -8 107 8 107 18 0 11 -10 10
-68 -3z"/>
<path d="M1136 1473 c-19 -43 -36 -137 -29 -164 3 -9 1 -25 -5 -35 -8 -14 -10
-10 -16 20 -7 37 -29 49 -40 21 -6 -17 20 -175 36 -218 14 -35 41 -50 77 -42
24 5 33 1 54 -27 34 -42 44 -32 12 12 -14 19 -25 37 -25 40 0 3 14 14 31 24
31 18 35 42 5 40 -9 -1 -16 -1 -16 0 0 0 7 26 15 56 8 30 15 61 15 68 0 22
-38 12 -59 -15 l-20 -28 -1 28 c0 36 -17 67 -35 67 -21 0 -19 35 6 115 23 75
21 94 -5 38z m11 -195 c-3 -8 -6 -5 -6 6 -1 11 2 17 5 13 3 -3 4 -12 1 -19z"/>
<path d="M3295 1460 c-4 -17 -5 -34 -2 -36 2 -3 7 10 11 27 8 42 0 50 -9 9z"/>
<path d="M2167 1333 c-10 -10 -8 -53 2 -53 5 0 9 14 9 30 -1 33 -1 33 -11 23z"/>
<path d="M2798 1203 c7 -3 16 -2 19 1 4 3 -2 6 -13 5 -11 0 -14 -3 -6 -6z"/>
<path d="M3078 1163 c7 -3 16 -2 19 1 4 3 -2 6 -13 5 -11 0 -14 -3 -6 -6z"/>
<path d="M1580 1141 c-5 -11 -10 -30 -11 -43 0 -22 -1 -22 -12 -4 -34 53 -44
61 -61 47 -9 -7 -16 -20 -16 -29 0 -35 42 -154 64 -179 l23 -26 38 19 c30 14
46 33 67 74 28 57 35 95 18 105 -9 6 -19 -3 -55 -50 -15 -19 -16 -18 -10 13
14 68 -19 121 -45 73z"/>
<path d="M2280 1088 c0 -4 5 -10 10 -13 6 -3 11 -18 11 -33 1 -27 1 -27 8 3 5
23 12 31 34 33 25 3 27 1 22 -21 -9 -34 10 -67 38 -66 13 1 16 3 7 5 -9 3 -21
14 -28 25 -11 18 -11 24 2 38 28 31 19 39 -44 38 -33 -1 -60 -5 -60 -9z"/>
<path d="M3240 1007 c-57 -28 -24 -117 43 -117 23 0 28 -3 17 -9 -8 -6 -18 -7
-22 -5 -4 3 -8 -2 -8 -11 0 -25 40 -9 71 28 25 29 25 32 11 58 -9 15 -22 25
-29 22 -7 -3 -13 0 -13 6 0 6 6 11 13 11 6 1 -3 7 -22 15 -18 8 -34 15 -35 15
0 0 -12 -6 -26 -13z m53 -22 c-3 -9 -8 -14 -10 -11 -3 3 -2 9 2 15 9 16 15 13
8 -4z"/>
<path d="M2249 980 c-19 -10 -42 -26 -49 -35 -24 -29 36 -7 71 26 36 33 29 36
-22 9z"/>
<path d="M2785 990 c-8 -12 2 -30 17 -30 7 0 7 5 -1 14 -9 11 -9 15 1 19 9 4
9 6 1 6 -6 1 -15 -3 -18 -9z"/>
<path d="M2875 950 c-3 -5 -1 -10 4 -10 6 0 11 5 11 10 0 6 -2 10 -4 10 -3 0
-8 -4 -11 -10z"/>
<path d="M3440 860 c0 -5 5 -10 11 -10 5 0 7 5 4 10 -3 6 -8 10 -11 10 -2 0
-4 -4 -4 -10z"/>
<path d="M3050 790 c-9 -6 -10 -10 -3 -10 6 0 15 5 18 10 8 12 4 12 -15 0z"/>
<path d="M3425 780 c-3 -5 -1 -10 4 -10 6 0 11 5 11 10 0 6 -2 10 -4 10 -3 0
-8 -4 -11 -10z"/>
<path d="M3371 749 c-1 -17 5 -29 15 -33 13 -5 14 -3 6 6 -5 7 -12 22 -15 33
-4 16 -5 14 -6 -6z"/>
<path d="M3491 754 c0 -11 3 -14 6 -6 3 7 2 16 -1 19 -3 4 -6 -2 -5 -13z"/>
<path d="M3622 757 c9 -7 23 -16 32 -22 8 -5 21 -32 28 -60 6 -27 18 -58 26
-67 12 -15 11 -20 -11 -43 -16 -18 -27 -23 -31 -16 -4 6 -23 11 -43 11 -35 0
-36 0 -18 -20 22 -24 31 -25 69 -5 16 9 36 13 43 11 7 -3 20 -3 29 1 19 7 12
44 -17 85 -12 17 -19 40 -17 58 2 26 -2 32 -47 55 -54 27 -70 32 -43 12z"/>
<path d="M3455 710 c-3 -5 -1 -10 4 -10 6 0 11 5 11 10 0 6 -2 10 -4 10 -3 0
-8 -4 -11 -10z"/>
<path d="M3376 662 c-4 -6 5 -23 19 -37 30 -33 60 -28 49 7 -8 29 -5 25 -35
33 -15 4 -30 2 -33 -3z"/>
<path d="M3115 616 c-14 -14 -25 -32 -25 -41 0 -17 16 -20 25 -5 3 6 15 10 26
10 18 0 19 -1 3 -25 -27 -42 0 -60 38 -25 26 24 68 27 68 5 0 -18 -20 -20 -20
-2 0 6 -7 3 -16 -8 -20 -26 -15 -79 8 -83 12 -2 23 9 35 35 13 27 25 38 40 38
23 0 45 15 22 15 -19 1 -60 39 -81 76 -13 23 -24 30 -57 32 -33 3 -46 -2 -66
-22z m75 10 c0 -11 -19 -15 -25 -6 -3 5 1 10 9 10 9 0 16 -2 16 -4z"/>
<path d="M3352 572 l-23 -18 36 4 c28 3 42 -1 61 -19 13 -12 24 -29 24 -37 0
-9 6 -12 18 -7 9 3 29 9 45 12 15 3 27 10 27 15 0 6 -7 7 -16 4 -11 -4 -14 -1
-12 12 4 18 19 20 53 7 15 -6 17 -5 9 4 -6 7 -27 16 -47 20 -32 8 -36 6 -47
-18 l-12 -26 -26 33 c-30 36 -56 40 -90 14z"/>
</g>
</svg>
